<svg xmlns="http://www.w3.org/2000/svg" width="256" height="256" viewBox="0 0 67.733 67.733"><g style="display:inline"><path clip-path="url(#b)" d="M31.835 22.687C53.58-15.954 11.778 4.83 1.094 12.522c-.729.526-.29.747.549.261 34.818-18.926 33.454-3.311 29.891 9.833-.096.343.08.431.301.071" style="fill:#515c9a" transform="matrix(.1488 0 0 .16093 16.137 28.693)"/><path d="M56.365 70.476c.839 1.896 2.331 5.344 2.447 6.1.045.287.326.238.3-.014-.04-.375-.552-4.201-.961-6.08-2.876-13.116-10.179-19.215-22.685-28.016-12.848-9.039-15.604-24.808-16.029-27.905-.018-.112-.132-.151-.173 0-.823 3.324-4.648 21.639 8.315 30.763 12.828 9.029 23.731 13.728 28.786 25.152" style="fill:#515c9a" transform="matrix(.1488 0 0 .16093 16.137 28.693)"/><path d="M45.187 39.391c-.477.058-.681.367.022.425 4.402.382 20.327-.734 29.095-8.194C83.61 23.7 92.579 17.861 102.01 16.858c.256-.029.817-.42-.145-.42-1.213 0-.235-.088-2.236.06-9.291.681-18.359 4.015-26.72 11.703-8.456 7.772-24.607 10.683-27.722 11.19m-5.547-6.082c-.476.06-.681.364.02.425 4.404.382 20.332-.735 29.098-8.198 9.306-7.918 18.271-13.76 27.706-14.762.254-.027.816-.416-.146-.416-1.211 0-.237-.089-2.232.057-9.296.684-18.365 4.018-26.722 11.705-8.457 7.772-24.611 10.683-27.724 11.189m-5.594-6.045c-.476.06-.681.368.022.428 4.402.382 20.326-.734 29.098-8.196 9.303-7.923 18.271-13.761 27.703-14.763.258-.029.816-.417-.145-.417-1.212 0-.235-.092-2.234.057-9.292.681-18.362 4.015-26.722 11.702-8.456 7.772-24.607 10.683-27.722 11.189" style="fill:#3a9d8f" transform="matrix(.1488 0 0 .16093 16.137 28.693)"/><path d="m112.088 57.851-.465-.355c-.413.629-1.625 1.924-2.371 1.924-.381 0-.495-.252-.495-.582 0-.328.164-.768.413-1.426l2.204-6.049c.135-.383.274-.906.274-1.345 0-.604-.249-1.126-1.101-1.126-2.362-.026-5.865 3.381-7.482 5.589l1.67-5.596-3.884-.013-.171.556h.723c.658 0 1.272 0 .815 1.484l-3.149 10.537h1.907l.71-2.242c1.012-3.189 1.659-3.88 2.777-5.261.908-1.017 2.479-2.86 4.018-2.86.303 0 .634.168.634.523 0 .387-.277 1.13-.36 1.375l-2.145 5.854c-.305.799-.387 1.266-.387 1.705 0 .494.331.906 1.048.906 1.513 0 2.861-1.209 3.824-2.391l.993-1.207m-29.718 1.56 4.507-15.164c.437-1.488 1.037-1.455 1.695-1.455h.723l.167-.556h-6.517l-.172.549h.723c.658 0 1.27 0 .816 1.484l-2.04 6.862H73.22l2.046-6.885c.438-1.488 1.037-1.455 1.697-1.455h.721l.167-.556h-6.516l-.176.549h.723c.662 0 1.273 0 .816 1.484l-4.504 15.169c-.438 1.48-1.038 1.455-1.699 1.455h-.723l-.166.553 6.518.002.171-.553h-.723c-.658 0-1.27.004-.813-1.484l2.217-7.47h9.056l-2.228 7.497c-.436 1.48-1.037 1.455-1.694 1.455h-.725l-.167.553 6.521.002.171-.553h-.723c-.658.002-1.274.005-.817-1.483m11.546-10.823c-4.057 0-7.786 3.55-8.105 7.571-.271 3.375 1.704 5.609 5.062 5.609 4.005 0 7.65-3.57 7.965-7.514.257-3.208-1.673-5.666-4.922-5.666zm2.764 4.666c-.233 2.872-2.166 7.788-5.777 7.788-2.462 0-3.099-1.844-2.932-3.935.248-3.071 2.108-7.79 5.859-7.79 2.41 0 3.008 1.952 2.85 3.937m33.625.375s3.756-3.076 4.385-3.518c.629-.439.732-.562 2.037-.652l.148-.532h-4.893l-.152.512c.449-.006.799-.038.949.007.217.059.764.123.514.613-.268.516-3.561 2.966-5.816 4.738l3.719-12.508-3.881-.007-.17.551h.727c.654 0 1.264-.003.811 1.482l-5.097 17.143h1.907l1.635-5.324 1.395-1.092s.873 2.215 1.557 3.562c1.523 3.027 3.893 2.879 4.621 2.879h.613l.4-.535c-2.911-.258-2.801-1.316-5.409-7.319m-5.287-3.841h-2.811c-.481 0-.688-.058-.729-.083-1.237-.581-1.473-.877-2.996-.877-2.586 0-5.367 2.032-5.367 4.618 0 1.759.854 2.61 2.339 3.437-.742.49-2.243 1.316-2.229 2.363.02 1.076 1.024 1.23 1.542 1.51-1.542.607-3.673 1.742-3.673 3.746 0 2.67 3.073 3.027 5.023 3.154 2.98.186 6.835-1.027 7.02-3.803.154-2.363-1.781-3.188-3.238-3.678-1.822-.602-4.112-1.402-4.112-1.402-.274-.135-.522-.242-.522-.604 0-.273.605-.878.854-.961.413.054.852.083 1.264.083 2.699 0 5.559-1.842 5.559-4.728 0-.711-.188-1.381-.604-1.969h2.439zm-9.357 11.342 4.035 1.553c1.013.443 1.34.912 1.334 1.658-.008 1.771-3.251 2.547-4.572 2.504-2.793-.074-4.421-.92-4.361-2.559.063-1.685 3.016-2.967 3.564-3.156zm1.667-4.552c-1.514 0-2.011-1.129-2.011-2.446 0-1.813 1.24-4.699 3.471-4.589 1.432 0 1.952 1.182 1.952 2.337 0 1.869-1.208 4.698-3.412 4.698m57.499-6.751h-2.814c-.477 0-.688-.062-.729-.082-1.24-.59-1.473-.88-2.994-.88-2.586 0-5.367 2.033-5.367 4.618 0 1.76.852 2.611 2.34 3.434-.742.494-2.246 1.32-2.227 2.365.014 1.078 1.021 1.234 1.539 1.51-1.539.607-3.676 1.74-3.676 3.752 0 2.662 3.07 3.027 5.021 3.15 2.982.186 6.842-1.031 7.023-3.803.154-2.363-1.781-3.189-3.24-3.676-1.82-.609-4.113-1.4-4.113-1.4-.27-.137-.521-.248-.521-.604 0-.277.605-.881.852-.962.414.054.855.081 1.268.081 2.695 0 5.562-1.844 5.562-4.729 0-.71-.191-1.381-.607-1.969h2.439zm-9.358 11.338 4.033 1.559c1.01.445 1.336.912 1.336 1.658-.008 1.766-3.254 2.537-4.576 2.506-2.793-.08-4.422-.924-4.355-2.564.06-1.684 3.013-2.962 3.562-3.159zm1.666-4.548c-1.52 0-2.008-1.13-2.008-2.446 0-1.814 1.234-4.702 3.465-4.589 1.432 0 1.951 1.181 1.951 2.337 0 1.864-1.209 4.698-3.408 4.698m-5.242 1.269-.465-.358c-.414.636-1.627 1.923-2.369 1.923-.385 0-.498-.244-.498-.574 0-.328.168-.768.414-1.43l2.205-6.045c.135-.387.273-.91.273-1.349 0-.604-.246-1.125-1.1-1.125-2.363-.022-5.863 3.385-7.482 5.593l1.668-5.596-3.877-.01-.174.551h.723c.658 0 1.271-.003.814 1.485l-3.148 10.533h1.906l.711-2.236c1.01-3.194 1.658-3.883 2.775-5.26.91-1.018 2.477-2.859 4.018-2.859.307 0 .637.164.637.521 0 .385-.275 1.127-.363 1.373l-2.143 5.854c-.301.797-.387 1.266-.387 1.703 0 .498.328.91 1.047.91 1.516 0 2.861-1.213 3.822-2.395l.993-1.209" style="fill:#515c9a" transform="matrix(.1488 0 0 .16093 16.137 28.693)"/><path d="M143.723 48.63c-4.061 0-7.787 3.547-8.107 7.564-.271 3.379 1.705 5.611 5.061 5.611 4.008 0 7.652-3.574 7.965-7.51.257-3.21-1.673-5.665-4.919-5.665zm2.762 4.663c-.23 2.872-2.164 7.79-5.775 7.79-2.465 0-3.098-1.846-2.932-3.937.246-3.073 2.105-7.791 5.857-7.791 2.412 0 3.006 1.957 2.85 3.938" style="fill:#515c9a" transform="matrix(.1488 0 0 .16093 16.137 28.693)"/><path d="M186.85 42.282h-7.73v19.202h4.822v-6.287h3.182c2.619-.051 6.156-.135 7.822-3.562.434-.892.652-1.93.652-2.989 0-1.304-.355-2.853-1.092-3.943-1.687-2.421-4.49-2.421-7.656-2.421zm-.023 9.353h-2.885V45.82h3.047c1.393 0 3.814 0 3.814 2.801 0 2.962-2.176 3.014-3.976 3.014m32.22.567c-1.361-.246-2.26-.406-2.26-1.223 0-.41.385-1.127 2.014-1.062 2.627.104 4.105 1.128 4.357 1.375l.961-2.914c-1.133-.707-2.924-1.558-5.506-1.558-3.975 0-5.994 2.419-5.994 4.755 0 1.062.438 2.041 1.064 2.667.626.626 1.496.981 2.367 1.226.627.188 1.281.326 1.904.433.82.136 1.801.22 2.426.543.246.135.547.328.547.818 0 1.06-1.48 1.321-2.488 1.259-2.408-.148-3.51-.633-5.162-2.033l-1.014 3.148c1.09.926 2.994 2.197 6.24 2.197 3.35 0 6.725-1.633 6.725-4.977.001-3.377-3.321-4.137-6.181-4.654m12.819 4.358v-5.577h2.574l.807-2.608h-3.354V43.18l-4.164 1.988v3.204h-1.82l-.838 2.608h2.658v6.012c0 1.363.025 2.369.596 3.215.9 1.303 2.479 1.385 3.922 1.385l1.438.002 1.113-3.432-1.84.002c-1.12-.001-1.12-.733-1.092-1.604m-28.252-9.74c-4.168 0-7.553 3.355-7.553 7.497 0 4.142 3.385 7.497 7.553 7.497 4.17 0 7.549-3.355 7.549-7.497 0-4.142-3.379-7.497-7.549-7.497zm0 11.701c-2.588 0-3.434-2.265-3.434-4.163 0-1.892.867-4.433 3.434-4.433s3.436 2.542 3.436 4.433c-.001 1.898-.848 4.163-3.436 4.163" style="fill:#3a9d8f" transform="matrix(.1488 0 0 .16093 16.137 28.693)"/><path d="m191.717 75.013-1.281-1.6 10.783-1.299 1.291 1.578-5.258.648v1.873h5.008a20.68 20.68 0 0 1 0 1.689h-1.873v2.887h1.873v1.689h-1.873v3.234h1.873v1.703h-5.02v2.125l5.012-.602v1.68l-10.375 1.258-1.24-1.535 4.83-.588v-2.338h-4.723v-1.703h1.58v-3.234h-2.348V80.79h2.348v-2.887h-1.58v-1.689h4.736V74.55Zm11.194 17.484v-19.76h6.598l-1.711 6.4c1.658 1.672 3.049 3.277 2.486 5.449-.848 3.285-3.92 2.852-4.236 2.852l-.811-1.705s3.059.303 3.471-1.652c.35-1.658-1.064-3.014-2.82-4.459l1.242-5.184h-2.447v18.059Zm-5.659-11.687h1.373v-2.885h-1.373zm0 4.923h1.373v-3.234h-1.373zm-3.146 0h1.375v-3.234h-1.375zm0-4.923h1.375v-2.885h-1.375zm-41.902-2.032c-.971 1.449-2.34 3.398-4.105 4.422v.061h4.152v-4.482h-.047zm5.388 8.586-.012-.008v-2.41h-8.912v2.117h7.75l-.777 1.691h-6.973v2.117h5.059l3.227.006c.426 0 .639-.262.639-.793v-2.72zm1.76-3.457v6.783c0 .568-.158 1.029-.473 1.381-.32.352-.781.529-1.389.529h-10.6v-8.674c-.656.371-1.609.773-2.857 1.203l-1.311-1.463c3.473-1.076 5.994-3.311 7.572-5.285h-6.334v-1.705h8.289v-2.154l-5.82.6-1.252-1.619 14.447-1.473 1.26 1.6-6.865.711v2.336h8.359v1.705h-6.381c.082.104.207.262.414.504l.006.012c1.592 1.838 3.969 3.789 7.145 4.77l-1.309 1.463c-1.248-.43-2.205-.832-2.867-1.203zm-5.332-.646 4.168-.006V83.2c-1.646-.949-2.941-2.695-3.896-4.109-.086-.121-.16-.232-.221-.316h-.047l-.004 4.486m17.49-7.797-3.72-2.776-1.082 1.35 3.71 2.789 1.092-1.363m-.707 4.455-3.32-2.441-1.086 1.357 3.312 2.447 1.094-1.363m-4.652 11.211 1.84.586 2.494-7.842-1.848-.588-2.486 7.844m11.289-4.164-.738 1.686h6.213l.006-4.578c.748.92 1.623 1.809 2.574 2.512l1.119-1.143s-2.084-1.465-3.918-4.604h3.143v-1.701h-3.57v-3.055h2.66v-1.689h-2.66v-2.611h-1.762v2.611h-3.865v-2.611h-1.775v2.611h-2.646v1.689h2.646v3.055h-3.533v1.701h3.373c-1.537 2.514-3.916 4.604-3.916 4.604l1.123 1.143a14.197 14.197 0 0 0 2.168-2.033l-.008 6.041c0 .568.158 1.027.479 1.377.314.354.779.527 1.387.527h8.01l.766-1.715h-8.24c-.426 0-.639-.266-.639-.795v-5.141h5.309v2.119zm-.818-10.883h3.865v3.049h-3.865zm-1.422 7.049a14.275 14.275 0 0 0 1.338-2.293h4.33c.311.689.768 1.486 1.338 2.293H175.2m44.402 4.556 3.951-1.098v1.98l-9.699 2.674-.01-12.59h1.842v10.111l2.068-.561V75.058h-3.93v-1.705h9.73v1.705h-3.953v5.129h3.951l-.719 1.707h-3.232v5.794zm5.912-5.72c.658 1.123 1.523 2.361 2.504 3.582 1.363-2.359 1.879-5.018 1.998-7.35h-3.467c-.257 1.27-.595 2.563-1.035 3.768zm6.338-3.768c-.342 3.926-1.336 6.783-2.547 8.859 1.307 1.488 2.973 3.027 4.465 4.051l-1.188 1.387s-2.164-1.4-4.473-3.92c-1.982 2.578-5.391 3.873-5.391 3.873l-1.385-1.34c2.568-.879 4.268-2.336 5.594-3.969a26.11 26.11 0 0 1-2.234-3.271c-.197.385-.398.754-.623 1.094l-1.318-.783c1.99-3.721 2.719-9.344 2.574-12.254h1.809c.049 1.189-.033 2.809-.291 4.57h6.352V78.2h-1.344" style="fill:#515c9a" transform="matrix(.1488 0 0 .16093 16.137 28.693)"/><g><g style="font-style:normal;font-variant:normal;font-weight:400;font-stretch:normal;font-size:19.7555542px;line-height:1.25;font-family:wor;-inkscape-font-specification:wor;letter-spacing:0;word-spacing:0;fill:#000;fill-opacity:1;stroke:none;stroke-width:.26458332"><path d="m-460.55 136.741.015-.03c-.118.304-.225.594-.346.9-.626 1.636-1.1 2.785-1.43 3.473-.327.678-.837 1.224-1.518 1.634a2.394 2.394 0 0 1-1.128.345 7.928 7.928 0 0 0 1.3 2.172c.707.83 1.707 1.459 3.04 1.886 1.367.439 2.497.48 3.348.095.908-.391 1.59-.962 2.029-1.71.445-.76 1.085-2.043 1.934-3.881l12.222-27.196c1.422-2.984 2.157-5.174 2.157-6.47 0-1.42-.852-2.315-2.492-2.67-1.562-.34-3.313-.066-5.215.768-1.789.784-3.088 1.651-3.954 2.615-.841.909-1.424 1.797-1.765 2.676-.337.843-.775 2.166-1.308 3.948l-6.89 21.445" style="font-style:normal;font-variant:normal;font-weight:400;font-stretch:normal;font-size:50.79999924px;font-family:'Arial Rounded MT Bold';-inkscape-font-specification:'Arial Rounded MT Bold, Normal';font-variant-ligatures:normal;font-variant-caps:normal;font-variant-numeric:normal;font-feature-settings:normal;text-align:start;writing-mode:lr-tb;text-anchor:start;fill:#0e7490;fill-opacity:1;stroke-width:.29152554" transform="matrix(.22494 0 0 .23382 137.59 -20.213)"/><path d="M-469.745 116.193c-.835.366-1.469.886-1.922 1.56-.43.636-.72 1.237-.879 1.812-.046.173-.102.41-.164.675.414-.042.766.04 1.05.256.453.315.777.73.965 1.246.19.504.459 1.416.808 2.752.118.462.23.925.338 1.386l3.463 13.283c.346 1.4.672 2.566.976 3.487.153.769.936.308 1.27.103.68-.41 1.19-.954 1.516-1.631.33-.688.804-1.837 1.43-3.472.121-.306.228-.595.346-.899l-.016.03.013-.04-4.827-16.45c-.44-1.454-.777-2.44-1.015-2.979-.236-.55-.642-.97-1.207-1.257-.534-.304-1.257-.251-2.145.138" style="font-style:normal;font-variant:normal;font-weight:400;font-stretch:normal;font-size:50.79999924px;font-family:'Arial Rounded MT Bold';-inkscape-font-specification:'Arial Rounded MT Bold, Normal';font-variant-ligatures:normal;font-variant-caps:normal;font-variant-numeric:normal;font-feature-settings:normal;text-align:start;writing-mode:lr-tb;text-anchor:start;fill:#ca8a04;fill-opacity:1;stroke-width:.29152554" transform="matrix(.22494 0 0 .23382 137.59 -20.213)"/><path d="M-475.847 135.31a79.04 79.04 0 0 1-.397 1.896c-.287 1.478-.591 2.555-.913 3.241-.071.15-.155.274-.25.378.145.28.311.527.5.737.299.34.666.58 1.107.723.9.29 1.561.089 1.95-.628.398-.75.776-1.938 1.133-3.576l2.963-12.92.036-.016c-.057-.22-.112-.424-.17-.65-.349-1.337-.617-2.25-.807-2.753a2.555 2.555 0 0 0-.966-1.246c-.283-.216-.635-.298-1.05-.256a107.48 107.48 0 0 0-.52 2.377l-2.614 12.703-.002-.01m3.247-15.524c-.032.127-.066.264-.105.427l.105-.427" style="font-style:normal;font-variant:normal;font-weight:400;font-stretch:normal;font-size:50.79999924px;font-family:'Arial Rounded MT Bold';-inkscape-font-specification:'Arial Rounded MT Bold, Normal';font-variant-ligatures:normal;font-variant-caps:normal;font-variant-numeric:normal;font-feature-settings:normal;text-align:start;writing-mode:lr-tb;text-anchor:start;fill:#0e7490;fill-opacity:1;stroke-width:.29152554" transform="matrix(.22494 0 0 .23382 137.59 -20.213)"/><path d="M-479.977 120.699c-.374.163-.68.504-.925 1.02a3.508 3.508 0 0 0-.359 1.52c0 .405.112 1.104.338 2.112l2.516 11.943c.075.348.18.828.316 1.441.137.606.297 1.152.48 1.636.063.16.131.311.204.453.095-.103.179-.228.25-.377.322-.686.626-1.764.913-3.242.143-.638.273-1.268.397-1.895l-2.435-12.055c-.225-1.121-.434-1.879-.629-2.283-.191-.411-.55-.499-1.066-.273M-477.036 141.407" style="font-style:normal;font-variant:normal;font-weight:400;font-stretch:normal;font-size:50.79999924px;font-family:'Arial Rounded MT Bold';-inkscape-font-specification:'Arial Rounded MT Bold, Normal';font-variant-ligatures:normal;font-variant-caps:normal;font-variant-numeric:normal;font-feature-settings:normal;text-align:start;writing-mode:lr-tb;text-anchor:start;fill:#ca8a04;fill-opacity:1;stroke-width:.29152554" transform="matrix(.22494 0 0 .23382 137.59 -20.213)"/></g></g><text xml:space="preserve" style="font-style:normal;font-variant:normal;font-weight:400;font-stretch:normal;font-size:19.7555542px;line-height:1.25;font-family:wor;-inkscape-font-specification:wor;letter-spacing:0;word-spacing:0;fill:#000;fill-opacity:1;stroke:none;stroke-width:.26458332" x="9.232" y="292.638" transform="translate(0 -229.267)"><tspan x="9.232" y="292.638" style="font-style:normal;font-variant:normal;font-weight:400;font-stretch:normal;font-size:7.76111126px;font-family:'Segoe UI';-inkscape-font-specification:'Segoe UI';stroke:#0e7490;stroke-width:.26458332">WebStoreGuru</tspan></text></g></svg>